<svg xmlns="http://www.w3.org/2000/svg" width="805" height="600"><rect width="805" height="600" x="0" y="0" fill="#FFFFFF" id="backgorund"/><g id="viz"><clipPath id="serieClipPath"><rect x="-50" y="-10" width="805" height="600"/></clipPath><g transform="translate(0,0)"><g transform="translate(50,10)" clip-path="url(#serieClipPath)"><g id="axis"><g transform="translate(0,570)" fill="none" font-size="10" font-family="sans-serif" text-anchor="middle"><path class="domain" stroke="currentColor" d="M0.5,6V0.5H740.5V6"/><g class="tick" opacity="1" transform="translate(0.5,0)"><line stroke="currentColor" y2="6"/><text fill="currentColor" y="9" dy="0.71em">370</text></g><g class="tick" opacity="1" transform="translate(67.77272727272728,0)"><line stroke="currentColor" y2="6"/><text fill="currentColor" y="9" dy="0.71em">380</text></g><g class="tick" opacity="1" transform="translate(135.04545454545456,0)"><line stroke="currentColor" y2="6"/><text fill="currentColor" y="9" dy="0.71em">390</text></g><g class="tick" opacity="1" transform="translate(202.3181818181818,0)"><line stroke="currentColor" y2="6"/><text fill="currentColor" y="9" dy="0.71em">400</text></g><g class="tick" opacity="1" transform="translate(269.5909090909091,0)"><line stroke="currentColor" y2="6"/><text fill="currentColor" y="9" dy="0.71em">410</text></g><g class="tick" opacity="1" transform="translate(336.8636363636364,0)"><line stroke="currentColor" y2="6"/><text fill="currentColor" y="9" dy="0.71em">420</text></g><g class="tick" opacity="1" transform="translate(404.1363636363636,0)"><line stroke="currentColor" y2="6"/><text fill="currentColor" y="9" dy="0.71em">430</text></g><g class="tick" opacity="1" transform="translate(471.4090909090909,0)"><line stroke="currentColor" y2="6"/><text fill="currentColor" y="9" dy="0.71em">440</text></g><g class="tick" opacity="1" transform="translate(538.6818181818182,0)"><line stroke="currentColor" y2="6"/><text fill="currentColor" y="9" dy="0.71em">450</text></g><g class="tick" opacity="1" transform="translate(605.9545454545455,0)"><line stroke="currentColor" y2="6"/><text fill="currentColor" y="9" dy="0.71em">460</text></g><g class="tick" opacity="1" transform="translate(673.2272727272727,0)"><line stroke="currentColor" y2="6"/><text fill="currentColor" y="9" dy="0.71em">470</text></g><g class="tick" opacity="1" transform="translate(740.5,0)"><line stroke="currentColor" y2="6"/><text fill="currentColor" y="9" dy="0.71em">480</text></g><text x="740" dy="-5" text-anchor="end" style="font-family: Arial, sans-serif; font-size: 12px; fill: rgb(123, 123, 123); font-weight: bold;">經調整收市價**</text></g><g transform="translate(0,0)" fill="none" font-size="10" font-family="sans-serif" text-anchor="end"><path class="domain" stroke="currentColor" d="M0.5,570.5V0.5"/><g class="tick" opacity="1" transform="translate(0,570.5)"><line stroke="currentColor" x2="-6"/><text fill="currentColor" x="-9" dy="0.32em">10,000,000</text></g><g class="tick" opacity="1" transform="translate(0,513.5)"><line stroke="currentColor" x2="-6"/><text fill="currentColor" x="-9" dy="0.32em">20,000,000</text></g><g class="tick" opacity="1" transform="translate(0,456.5)"><line stroke="currentColor" x2="-6"/><text fill="currentColor" x="-9" dy="0.32em">30,000,000</text></g><g class="tick" opacity="1" transform="translate(0,399.5)"><line stroke="currentColor" x2="-6"/><text fill="currentColor" x="-9" dy="0.32em">40,000,000</text></g><g class="tick" opacity="1" transform="translate(0,342.5)"><line stroke="currentColor" x2="-6"/><text fill="currentColor" x="-9" dy="0.32em">50,000,000</text></g><g class="tick" opacity="1" transform="translate(0,285.5)"><line stroke="currentColor" x2="-6"/><text fill="currentColor" x="-9" dy="0.32em">60,000,000</text></g><g class="tick" opacity="1" transform="translate(0,228.5)"><line stroke="currentColor" x2="-6"/><text fill="currentColor" x="-9" dy="0.32em">70,000,000</text></g><g class="tick" opacity="1" transform="translate(0,171.50000000000003)"><line stroke="currentColor" x2="-6"/><text fill="currentColor" x="-9" dy="0.32em">80,000,000</text></g><g class="tick" opacity="1" transform="translate(0,114.49999999999997)"><line stroke="currentColor" x2="-6"/><text fill="currentColor" x="-9" dy="0.32em">90,000,000</text></g><g class="tick" opacity="1" transform="translate(0,57.499999999999986)"><line stroke="currentColor" x2="-6"/><text fill="currentColor" x="-9" dy="0.32em">100,000,000</text></g><g class="tick" opacity="1" transform="translate(0,0.5)"><line stroke="currentColor" x2="-6"/><text fill="currentColor" x="-9" dy="0.32em">110,000,000</text></g><text x="4" text-anchor="start" dominant-baseline="hanging" style="font-family: Arial, sans-serif; font-size: 12px; fill: rgb(123, 123, 123); font-weight: bold;">成交量</text></g></g><g id="viz"><g><path d="M6.727272727272727,191.4248841C23.545454545454543,191.4248841,23.545454545454543,291.55224119999997,40.36363636363636,291.55224119999997C52.13636363636363,291.55224119999997,52.13636363636363,397.94850959999997,63.90909090909091,397.94850959999997C72.31818181818181,397.94850959999997,72.31818181818181,465.13472310000003,80.72727272727272,465.13472310000003C87.45454545454544,465.13472310000003,87.45454545454544,400.53140190000005,94.18181818181817,400.53140190000005C99.22727272727272,400.53140190000005,99.22727272727272,366.5986065,104.27272727272727,366.5986065C109.31818181818181,366.5986065,109.31818181818181,360.72975540000004,114.36363636363636,360.72975540000004C122.77272727272728,360.72975540000004,122.77272727272728,422.2360215,131.1818181818182,422.2360215C132.86363636363637,422.2360215,132.86363636363637,203.94546419999998,134.54545454545456,203.94546419999998C139.59090909090912,203.94546419999998,139.59090909090912,390.8689728,144.63636363636365,390.8689728C156.40909090909093,390.8689728,156.40909090909093,281.68297620000004,168.1818181818182,281.68297620000004C169.86363636363637,281.68297620000004,169.86363636363637,362.60449109999996,171.54545454545453,362.60449109999996C176.59090909090907,362.60449109999996,176.59090909090907,390.38050560000005,181.63636363636363,390.38050560000005C183.3181818181818,390.38050560000005,183.3181818181818,19.90352219999999,185,19.90352219999999C198.45454545454544,19.90352219999999,198.45454545454544,80.97523169999998,211.9090909090909,80.97523169999998C230.4090909090909,80.97523169999998,230.4090909090909,398.4686688,248.9090909090909,398.4686688C265.72727272727275,398.4686688,265.72727272727275,316.32511379999994,282.54545454545456,316.32511379999994C299.3636363636364,316.32511379999994,299.3636363636364,421.5469485,316.1818181818182,421.5469485C333,421.5469485,333,351.87924,349.8181818181818,351.87924C373.3636363636364,351.87924,373.3636363636364,396.8625,396.90909090909093,396.8625C417.0909090909091,396.8625,417.0909090909091,392.759754,437.2727272727273,392.759754C447.3636363636364,392.759754,447.3636363636364,248.83673189999996,457.45454545454544,248.83673189999996C481,248.83673189999996,481,361.9697448,504.5454545454545,361.9697448C509.59090909090907,361.9697448,509.59090909090907,442.64907810000005,514.6363636363636,442.64907810000005C519.6818181818182,442.64907810000005,519.6818181818182,484.7199972,524.7272727272727,484.7199972C534.8181818181818,484.7199972,534.8181818181818,454.1085462,544.9090909090909,454.1085462C558.3636363636363,454.1085462,558.3636363636363,457.38061410000006,571.8181818181818,457.38061410000006C603.7727272727273,457.38061410000006,603.7727272727273,457.6957044,635.7272727272727,457.6957044C644.1363636363636,457.6957044,644.1363636363636,529.060434,652.5454545454545,529.060434C666,529.060434,666,489.31859190000006,679.4545454545455,489.31859190000006C682.8181818181818,489.31859190000006,682.8181818181818,404.2011759,686.1818181818181,404.2011759C701.3181818181818,404.2011759,701.3181818181818,382.1996376,716.4545454545454,382.1996376" stroke="#1f77b4" fill="none"/><text font-family="sans-serif" font-size="10" class="labels" x="185" y="19.90352219999999" dx="0" dy="-4" text-anchor="middle"/></g></g></g><text y="4" x="4" style="font-family: Arial, sans-serif; font-size: 12px; fill: black; font-weight: bold; dominant-baseline: hanging;"/></g><g id="grid"><rect x="0" y="0" width="805" height="600" fill="none" stroke="#ccc"/></g></g></svg>